<?xml version="1.0" standalone="no"?>
  <!DOCTYPE svg PUBLIC "-//W3C//DTD SVG 20010904//EN"
 "http://www.w3.org/TR/2001/REC-SVG-20010904/DTD/svg10.dtd">

<svg version="1.0" xmlns="http://www.w3.org/2000/svg" width="175.000000pt" height="175.000000pt" viewBox="0 0 175.000000 175.000000" preserveAspectRatio="xMidYMid meet">
  <metadata>
    Created by potrace 1.13, written by Peter Selinger 2001-2015
  </metadata>
  <g transform="translate(0.000000,175.000000) scale(0.105000,-0.105000)" fill="#000">
    <path d="M511 1415 c-66 -19 -104 -42 -153 -92 -47 -49 -84 -119 -98 -189 -32
-155 69 -372 274 -582 134 -138 277 -232 353 -232 144 0 428 270 543 515 49
104 64 170 58 259 -9 132 -79 241 -194 297 -55 27 -76 32 -137 32 -106 1 -198
-45 -253 -124 l-28 -40 -25 33 c-89 115 -211 159 -340 123z m196 -86 c42 -20
89 -72 125 -138 28 -51 58 -42 103 30 82 132 208 169 343 100 85 -44 142 -145
142 -251 0 -80 -12 -125 -57 -215 -103 -207 -348 -450 -465 -462 -65 -7 -147
47 -294 192 -294 292 -358 539 -182 702 40 36 69 51 133 67 35 8 108 -3 152
-25z" />
  </g>
</svg>
